<svg width="295" height="223" viewBox="0 0 295 223" fill="none" xmlns="http://www.w3.org/2000/svg">
<path d="M1092.97 189.204L1086.1 186.447L1079.22 220.09L1072.34 223.537L1065.47 187.76L1058.59 182.64L1051.71 197.41L1044.83 190.616L1037.96 162.782L1031.08 236.042L1024.2 222.06L1017.33 181.458L1010.45 194.751L1003.57 243.756L996.695 182.738L989.818 172.662L982.941 249.762L976.064 241.294L969.187 228.592L962.31 223.143L955.433 173.252L948.555 205.845L941.678 224.062L934.801 141.644L927.924 168.526L921.047 191.994L914.17 167.968L907.293 248.942L900.416 189.303L893.539 135.703L886.662 147.224L879.785 197.082L872.907 180.408L866.03 203.449L859.153 191.239L852.276 200.397L845.399 167.869L838.522 202.53L831.645 230.725L824.768 258.592L817.891 249.762L811.014 219.959L804.137 122.673L797.259 144.04L790.382 176.206L783.505 135.408L776.628 182.902L769.751 147.519L762.874 168.427L755.997 169.872L749.12 170.791L742.243 159.5L735.366 122.902L728.488 105.933L721.611 132.388L714.734 108.395L707.857 147.913L700.98 94.248L694.103 209.423L687.226 226.228L680.349 154.872L673.472 122.738L666.595 116.239L659.717 115.353L652.84 100.255L645.963 111.874L639.086 153.263L632.209 103.931L625.332 137.574L618.455 92.2786L611.578 95.725L604.701 147.815L597.824 142.76L590.947 148.11L584.069 123.099L577.192 125.856L570.315 101.436L563.438 114.139L556.561 97.2021L549.684 120.112L542.807 117.388L535.93 122.082L529.053 72.6506L522.176 81.1517L515.298 107.607L508.421 99.3027L501.544 113.482L494.667 85.7469L487.79 110.266L480.913 89.5872L474.036 88.6681L467.159 97.5303L460.568 103.767L453.691 87.027L446.814 94.5434L439.937 87.0926L433.06 75.539L426.183 108.788L419.306 95.167L412.429 98.1867L405.551 106.327L398.674 82.1364L391.797 151.95L384.92 156.414L378.043 141.939L371.166 127.301L364.289 99.1058L357.412 132.158L350.535 86.2064L343.658 106.885L336.78 214.478L329.903 177.355L323.026 112.957L316.149 103.438L309.272 83.1211L302.395 147.158L295.518 148.602L288.641 127.793L281.764 78.0992L274.887 102.487L268.01 129.007L261.132 108.23L254.255 70.0248L247.378 62.2458L240.501 91.7535L233.624 77.8366L226.747 78.2633L219.87 88.9964L212.993 58.3727L206.116 54.434L199.239 100.911L192.361 63.6244L185.484 74.9482L178.607 100.517L171.73 120.08L164.853 133.602L157.976 83.2524L151.099 70.8782L144.222 94.7403L137.345 149.653L130.468 116.075L123.59 122.968L116.713 125.627L109.836 81.6112L102.959 63.0992L96.0821 70.4515L89.205 74.3246L82.3279 55.6156L75.4508 39.6966L68.5737 96.2502L61.6966 157.005L54.8195 121.786L47.9424 88.0117L41.0653 99.9592L34.1882 56.2721L27.3111 18.4603L20.434 1.32678L13.5569 9.00731L6.67984 37.6616L-0.197255 51.5456L-7.07435 43.2414L-13.9146 18.9526V258.592H-7.07435H-0.197255H6.67984H13.5569H20.434H27.3111H34.1882H41.0653H47.9424H54.8195H61.6966H68.5737H75.4508H82.3279H89.205H96.0821H102.959H109.836H116.713H123.59H130.468H137.345H144.222H151.099H157.976H164.853H171.73H178.607H185.484H192.361H199.239H206.116H212.993H219.87H226.747H233.624H240.501H247.378H254.255H261.132H268.01H274.887H281.764H288.641H295.518H302.395H309.272H316.149H323.026H329.903H336.78H343.658H350.535H357.412H364.289H371.166H378.043H384.92H391.797H398.674H405.551H412.429H419.306H426.183H433.06H439.937H446.814H453.691H460.568H467.159H474.036H480.913H487.79H494.667H501.544H508.421H515.298H522.176H529.053H535.93H542.807H549.684H556.561H563.438H570.315H577.192H584.069H590.947H597.824H604.701H611.578H618.455H625.332H632.209H639.086H645.963H652.84H659.717H666.595H673.472H680.349H687.226H694.103H700.98H707.857H714.734H721.611H728.488H735.366H742.243H749.12H755.997H762.874H769.751H776.628H783.505H790.382H797.259H804.137H811.014H817.891H824.768H831.645H838.522H845.399H852.276H859.153H866.03H872.907H879.785H886.662H893.539H900.416H907.293H914.17H921.047H927.924H934.801H941.678H948.555H955.433H962.31H969.187H976.064H982.941H989.818H996.695H1003.57H1010.45H1017.33H1024.2H1031.08H1037.96H1044.83H1051.71H1058.59H1065.47H1072.34H1079.22H1086.1H1092.97V189.204Z" fill="url(#paint0_linear_205:13)"/>
<path d="M824.768 258.592L831.645 230.725L838.522 202.53L845.399 167.869L852.276 200.397L859.153 191.239L866.03 203.449L872.907 180.408L879.785 197.082L886.662 147.224L893.539 135.703L900.416 189.303L907.293 248.942L914.17 167.968L921.047 191.994L927.924 168.526L934.801 141.644L941.678 224.062L948.555 205.845L955.433 173.252L962.31 223.143L969.187 228.592L976.064 241.294L982.941 249.762L989.818 172.662L996.695 182.738L1003.57 243.756L1010.45 194.751L1017.33 181.458L1024.2 222.06L1031.08 236.042L1037.96 162.782L1044.83 190.616L1051.71 197.41L1058.59 182.64L1065.47 187.76L1072.34 223.537L1079.22 220.09L1086.1 186.447L1092.97 189.204V258.592H1086.1H1079.22H1072.34H1065.47H1058.59H1051.71H1044.83H1037.96H1031.08H1024.2H1017.33H1010.45H1003.57H996.695H989.818H982.941H976.064H969.187H962.31H955.433H948.555H941.678H934.801H927.924H921.047H914.17H907.293H900.416H893.539H886.662H879.785H872.907H866.03H859.153H852.276H845.399H838.522H831.645H824.768ZM824.768 258.592L817.891 249.762L811.014 219.959L804.137 122.673L797.259 144.04L790.382 176.206L783.505 135.408L776.628 182.902L769.751 147.519L762.874 168.427L755.997 169.872L749.12 170.791L742.243 159.5L735.366 122.902L728.488 105.933L721.611 132.388L714.734 108.395L707.857 147.913L700.98 94.248L694.103 209.423L687.226 226.228L680.349 154.872L673.472 122.738L666.595 116.239L659.717 115.353L652.84 100.255L645.963 111.874L639.086 153.263L632.209 103.931L625.332 137.574L618.455 92.2786L611.578 95.725L604.701 147.815L597.824 142.76L590.947 148.11L584.069 123.099L577.192 125.856L570.315 101.436L563.438 114.139L556.561 97.2021L549.684 120.112L542.807 117.388L535.93 122.082L529.053 72.6506L522.176 81.1517L515.298 107.607L508.421 99.3027L501.544 113.482L494.667 85.7469L487.79 110.266L480.913 89.5872L474.036 88.6681L467.159 97.5303L460.568 103.767L453.691 87.027L446.814 94.5434L439.937 87.0926L433.06 75.539L426.183 108.788L419.306 95.167L412.429 98.1867L405.551 106.327L398.674 82.1364L391.797 151.95L384.92 156.414L378.043 141.939L371.166 127.301L364.289 99.1058L357.412 132.158L350.535 86.2064L343.658 106.885L336.78 214.478L329.903 177.355L323.026 112.957L316.149 103.438L309.272 83.1211L302.395 147.158L295.518 148.602L288.641 127.793L281.764 78.0992L274.887 102.487L268.01 129.007L261.132 108.23L254.255 70.0248L247.378 62.2458L240.501 91.7535L233.624 77.8366L226.747 78.2633L219.87 88.9964L212.993 58.3727L206.116 54.434L199.239 100.911L192.361 63.6244L185.484 74.9482L178.607 100.517L171.73 120.08L164.853 133.602L157.976 83.2524L151.099 70.8782L144.222 94.7403L137.345 149.653L130.468 116.075L123.59 122.968L116.713 125.627L109.836 81.6112L102.959 63.0992L96.0821 70.4515L89.205 74.3246L82.3279 55.6156L75.4508 39.6966L68.5737 96.2502L61.6966 157.005L54.8195 121.786L47.9424 88.0117L41.0653 99.9592L34.1882 56.2721L27.3111 18.4603L20.434 1.32678L13.5569 9.00731L6.67984 37.6616L-0.197255 51.5456L-7.07435 43.2414L-13.9146 18.9526V258.592H-7.07435H-0.197255H6.67984H13.5569H20.434H27.3111H34.1882H41.0653H47.9424H54.8195H61.6966H68.5737H75.4508H82.3279H89.205H96.0821H102.959H109.836H116.713H123.59H130.468H137.345H144.222H151.099H157.976H164.853H171.73H178.607H185.484H192.361H199.239H206.116H212.993H219.87H226.747H233.624H240.501H247.378H254.255H261.132H268.01H274.887H281.764H288.641H295.518H302.395H309.272H316.149H323.026H329.903H336.78H343.658H350.535H357.412H364.289H371.166H378.043H384.92H391.797H398.674H405.551H412.429H419.306H426.183H433.06H439.937H446.814H453.691H460.568H467.159H474.036H480.913H487.79H494.667H501.544H508.421H515.298H522.176H529.053H535.93H542.807H549.684H556.561H563.438H570.315H577.192H584.069H590.947H597.824H604.701H611.578H618.455H625.332H632.209H639.086H645.963H652.84H659.717H666.595H673.472H680.349H687.226H694.103H700.98H707.857H714.734H721.611H728.488H735.366H742.243H749.12H755.997H762.874H769.751H776.628H783.505H790.382H797.259H804.137H811.014H817.891H824.768Z" stroke="#646981" stroke-linejoin="round"/>
<path d="M824.768 258.592L831.645 230.725L838.522 202.53L845.399 167.869L852.276 200.397L859.153 191.239L866.03 203.449L872.907 180.408L879.785 197.082L886.662 147.224L893.539 135.703L900.416 189.303L907.293 248.942L914.17 167.968L921.047 191.994L927.924 168.526L934.801 141.644L941.678 224.062L948.555 205.845L955.433 173.252L962.31 223.143L969.187 228.592L976.064 241.294L982.941 249.762L989.818 172.662L996.695 182.738L1003.57 243.756L1010.45 194.751L1017.33 181.458L1024.2 222.06L1031.08 236.042L1037.96 162.782L1044.83 190.616L1051.71 197.41L1058.59 182.64L1065.47 187.76L1072.34 223.537L1079.22 220.09L1086.1 186.447L1092.97 189.204V258.592H1086.1H1079.22H1072.34H1065.47H1058.59H1051.71H1044.83H1037.96H1031.08H1024.2H1017.33H1010.45H1003.57H996.695H989.818H982.941H976.064H969.187H962.31H955.433H948.555H941.678H934.801H927.924H921.047H914.17H907.293H900.416H893.539H886.662H879.785H872.907H866.03H859.153H852.276H845.399H838.522H831.645H824.768ZM824.768 258.592L817.891 249.762L811.014 219.959L804.137 122.673L797.259 144.04L790.382 176.206L783.505 135.408L776.628 182.902L769.751 147.519L762.874 168.427L755.997 169.872L749.12 170.791L742.243 159.5L735.366 122.902L728.488 105.933L721.611 132.388L714.734 108.395L707.857 147.913L700.98 94.248L694.103 209.423L687.226 226.228L680.349 154.872L673.472 122.738L666.595 116.239L659.717 115.353L652.84 100.255L645.963 111.874L639.086 153.263L632.209 103.931L625.332 137.574L618.455 92.2786L611.578 95.725L604.701 147.815L597.824 142.76L590.947 148.11L584.069 123.099L577.192 125.856L570.315 101.436L563.438 114.139L556.561 97.2021L549.684 120.112L542.807 117.388L535.93 122.082L529.053 72.6506L522.176 81.1517L515.298 107.607L508.421 99.3027L501.544 113.482L494.667 85.7469L487.79 110.266L480.913 89.5872L474.036 88.6681L467.159 97.5303L460.568 103.767L453.691 87.027L446.814 94.5434L439.937 87.0926L433.06 75.539L426.183 108.788L419.306 95.167L412.429 98.1867L405.551 106.327L398.674 82.1364L391.797 151.95L384.92 156.414L378.043 141.939L371.166 127.301L364.289 99.1058L357.412 132.158L350.535 86.2064L343.658 106.885L336.78 214.478L329.903 177.355L323.026 112.957L316.149 103.438L309.272 83.1211L302.395 147.158L295.518 148.602L288.641 127.793L281.764 78.0992L274.887 102.487L268.01 129.007L261.132 108.23L254.255 70.0248L247.378 62.2458L240.501 91.7535L233.624 77.8366L226.747 78.2633L219.87 88.9964L212.993 58.3727L206.116 54.434L199.239 100.911L192.361 63.6244L185.484 74.9482L178.607 100.517L171.73 120.08L164.853 133.602L157.976 83.2524L151.099 70.8782L144.222 94.7403L137.345 149.653L130.468 116.075L123.59 122.968L116.713 125.627L109.836 81.6112L102.959 63.0992L96.0821 70.4515L89.205 74.3246L82.3279 55.6156L75.4508 39.6966L68.5737 96.2502L61.6966 157.005L54.8195 121.786L47.9424 88.0117L41.0653 99.9592L34.1882 56.2721L27.3111 18.4603L20.434 1.32678L13.5569 9.00731L6.67984 37.6616L-0.197255 51.5456L-7.07435 43.2414L-13.9146 18.9526V258.592H-7.07435H-0.197255H6.67984H13.5569H20.434H27.3111H34.1882H41.0653H47.9424H54.8195H61.6966H68.5737H75.4508H82.3279H89.205H96.0821H102.959H109.836H116.713H123.59H130.468H137.345H144.222H151.099H157.976H164.853H171.73H178.607H185.484H192.361H199.239H206.116H212.993H219.87H226.747H233.624H240.501H247.378H254.255H261.132H268.01H274.887H281.764H288.641H295.518H302.395H309.272H316.149H323.026H329.903H336.78H343.658H350.535H357.412H364.289H371.166H378.043H384.92H391.797H398.674H405.551H412.429H419.306H426.183H433.06H439.937H446.814H453.691H460.568H467.159H474.036H480.913H487.79H494.667H501.544H508.421H515.298H522.176H529.053H535.93H542.807H549.684H556.561H563.438H570.315H577.192H584.069H590.947H597.824H604.701H611.578H618.455H625.332H632.209H639.086H645.963H652.84H659.717H666.595H673.472H680.349H687.226H694.103H700.98H707.857H714.734H721.611H728.488H735.366H742.243H749.12H755.997H762.874H769.751H776.628H783.505H790.382H797.259H804.137H811.014H817.891H824.768Z" stroke="url(#paint1_linear_205:13)" stroke-linejoin="round"/>
<path d="M1092.97 189.204L1086.1 186.447L1079.22 220.09L1072.34 223.537L1065.47 187.76L1058.59 182.64L1051.71 197.41L1044.83 190.616L1037.96 162.782L1031.08 236.042L1024.2 222.06L1017.33 181.458L1010.45 194.751L1003.57 243.756L996.695 182.738L989.818 172.662L982.941 249.762L976.064 241.294L969.187 228.592L962.31 223.143L955.433 173.252L948.555 205.845L941.678 224.062L934.801 141.644L927.924 168.526L921.047 191.994L914.17 167.968L907.293 248.942L900.416 189.303L893.539 135.703L886.662 147.224L879.785 197.082L872.907 180.408L866.03 203.449L859.153 191.239L852.276 200.397L845.399 167.869L838.522 202.53L831.645 230.725L824.768 258.592L817.891 249.762L811.014 219.959L804.137 122.673L797.259 144.04L790.382 176.206L783.505 135.408L776.628 182.902L769.751 147.519L762.874 168.427L755.997 169.872L749.12 170.791L742.243 159.5L735.366 122.902L728.488 105.933L721.611 132.388L714.734 108.395L707.857 147.913L700.98 94.248L694.103 209.423L687.226 226.228L680.349 154.872L673.472 122.738L666.595 116.239L659.717 115.353L652.84 100.255L645.963 111.874L639.086 153.263L632.209 103.931L625.332 137.574L618.455 92.2786L611.578 95.725L604.701 147.815L597.824 142.76L590.947 148.11L584.069 123.099L577.192 125.856L570.315 101.436L563.438 114.139L556.561 97.2021L549.684 120.112L542.807 117.388L535.93 122.082L529.053 72.6506L522.176 81.1517L515.298 107.607L508.421 99.3027L501.544 113.482L494.667 85.7469L487.79 110.266L480.913 89.5872L474.036 88.6681L467.159 97.5303L460.568 103.767L453.691 87.027L446.814 94.5434L439.937 87.0926L433.06 75.539L426.183 108.788L419.306 95.167L412.429 98.1867L405.551 106.327L398.674 82.1364L391.797 151.95L384.92 156.414L378.043 141.939L371.166 127.301L364.289 99.1058L357.412 132.158L350.535 86.2064L343.658 106.885L336.78 214.478L329.903 177.355L323.026 112.957L316.149 103.438L309.272 83.1211L302.395 147.158L295.518 148.602L288.641 127.793L281.764 78.0992L274.887 102.487L268.01 129.007L261.132 108.23L254.255 70.0248L247.378 62.2458L240.501 91.7535L233.624 77.8366L226.747 78.2633L219.87 88.9964L212.993 58.3727L206.116 54.434L199.239 100.911L192.361 63.6244L185.484 74.9482L178.607 100.517L171.73 120.08L164.853 133.602L157.976 83.2524L151.099 70.8782L144.222 94.7403L137.345 149.653L130.468 116.075L123.59 122.968L116.713 125.627L109.836 81.6112L102.959 63.0992L96.0821 70.4515L89.205 74.3246L82.3279 55.6156L75.4508 39.6966L68.5737 96.2502L61.6966 157.005L54.8195 121.786L47.9424 88.0117L41.0653 99.9592L34.1882 56.2721L27.3111 18.4603L20.434 1.32678L13.5569 9.00731L6.67984 37.6616L-0.197255 51.5456L-7.07435 43.2414L-13.9146 18.9526" stroke="#646981" stroke-linecap="round" stroke-linejoin="round"/>
<path d="M1092.97 189.204L1086.1 186.447L1079.22 220.09L1072.34 223.537L1065.47 187.76L1058.59 182.64L1051.71 197.41L1044.83 190.616L1037.96 162.782L1031.08 236.042L1024.2 222.06L1017.33 181.458L1010.45 194.751L1003.57 243.756L996.695 182.738L989.818 172.662L982.941 249.762L976.064 241.294L969.187 228.592L962.31 223.143L955.433 173.252L948.555 205.845L941.678 224.062L934.801 141.644L927.924 168.526L921.047 191.994L914.17 167.968L907.293 248.942L900.416 189.303L893.539 135.703L886.662 147.224L879.785 197.082L872.907 180.408L866.03 203.449L859.153 191.239L852.276 200.397L845.399 167.869L838.522 202.53L831.645 230.725L824.768 258.592L817.891 249.762L811.014 219.959L804.137 122.673L797.259 144.04L790.382 176.206L783.505 135.408L776.628 182.902L769.751 147.519L762.874 168.427L755.997 169.872L749.12 170.791L742.243 159.5L735.366 122.902L728.488 105.933L721.611 132.388L714.734 108.395L707.857 147.913L700.98 94.248L694.103 209.423L687.226 226.228L680.349 154.872L673.472 122.738L666.595 116.239L659.717 115.353L652.84 100.255L645.963 111.874L639.086 153.263L632.209 103.931L625.332 137.574L618.455 92.2786L611.578 95.725L604.701 147.815L597.824 142.76L590.947 148.11L584.069 123.099L577.192 125.856L570.315 101.436L563.438 114.139L556.561 97.2021L549.684 120.112L542.807 117.388L535.93 122.082L529.053 72.6506L522.176 81.1517L515.298 107.607L508.421 99.3027L501.544 113.482L494.667 85.7469L487.79 110.266L480.913 89.5872L474.036 88.6681L467.159 97.5303L460.568 103.767L453.691 87.027L446.814 94.5434L439.937 87.0926L433.06 75.539L426.183 108.788L419.306 95.167L412.429 98.1867L405.551 106.327L398.674 82.1364L391.797 151.95L384.92 156.414L378.043 141.939L371.166 127.301L364.289 99.1058L357.412 132.158L350.535 86.2064L343.658 106.885L336.78 214.478L329.903 177.355L323.026 112.957L316.149 103.438L309.272 83.1211L302.395 147.158L295.518 148.602L288.641 127.793L281.764 78.0992L274.887 102.487L268.01 129.007L261.132 108.23L254.255 70.0248L247.378 62.2458L240.501 91.7535L233.624 77.8366L226.747 78.2633L219.87 88.9964L212.993 58.3727L206.116 54.434L199.239 100.911L192.361 63.6244L185.484 74.9482L178.607 100.517L171.73 120.08L164.853 133.602L157.976 83.2524L151.099 70.8782L144.222 94.7403L137.345 149.653L130.468 116.075L123.59 122.968L116.713 125.627L109.836 81.6112L102.959 63.0992L96.0821 70.4515L89.205 74.3246L82.3279 55.6156L75.4508 39.6966L68.5737 96.2502L61.6966 157.005L54.8195 121.786L47.9424 88.0117L41.0653 99.9592L34.1882 56.2721L27.3111 18.4603L20.434 1.32678L13.5569 9.00731L6.67984 37.6616L-0.197255 51.5456L-7.07435 43.2414L-13.9146 18.9526" stroke="url(#paint2_linear_205:13)" stroke-linecap="round" stroke-linejoin="round"/>
<defs>
<linearGradient id="paint0_linear_205:13" x1="539.53" y1="1.32678" x2="539.53" y2="258.592" gradientUnits="userSpaceOnUse">
<stop stop-color="#0A090A"/>
<stop offset="0.315625" stop-color="#050505" stop-opacity="0.32"/>
<stop offset="0.695833" stop-opacity="0"/>
</linearGradient>
<linearGradient id="paint1_linear_205:13" x1="539.53" y1="1.32678" x2="576.739" y2="203.652" gradientUnits="userSpaceOnUse">
<stop stop-color="#43E9FF"/>
<stop offset="1" stop-color="#00ABAB"/>
</linearGradient>
<linearGradient id="paint2_linear_205:13" x1="539.53" y1="1.32678" x2="576.739" y2="203.652" gradientUnits="userSpaceOnUse">
<stop stop-color="#43E9FF"/>
<stop offset="1" stop-color="#00ABAB"/>
</linearGradient>
</defs>
</svg>
